<?xml version="1.0" standalone="no"?>
<!DOCTYPE svg PUBLIC "-//W3C//DTD SVG 20010904//EN"
 "http://www.w3.org/TR/2001/REC-SVG-20010904/DTD/svg10.dtd">
<svg version="1.0" xmlns="http://www.w3.org/2000/svg"
 width="569.000000pt" height="374.000000pt" viewBox="0 0 569.000000 374.000000"
 preserveAspectRatio="xMidYMid meet">

<g transform="translate(0.000000,374.000000) scale(0.100000,-0.100000)"
fill="#000000" stroke="none">
<path d="M3160 2990 l-35 -7 30 -2 c25 -2 27 -4 11 -10 -14 -5 -16 -10 -8 -15
7 -4 10 -17 6 -32 -4 -16 -2 -24 7 -24 29 0 -30 -29 -67 -33 l-39 -4 45 -1
c64 -1 67 -1 50 -12 -12 -8 -9 -10 13 -10 45 0 31 -17 -20 -23 -30 -3 -89 -27
-167 -67 -146 -76 -193 -90 -316 -90 -134 0 -198 19 -290 86 -41 30 -94 60
-117 67 -43 11 -43 12 -43 57 1 39 2 43 14 28 7 -10 19 -18 26 -18 7 0 29 -13
50 -30 50 -40 81 -50 143 -49 52 2 51 2 -15 9 -36 3 -77 14 -90 23 -48 34 -58
45 -58 64 0 10 -5 24 -12 31 -14 14 -54 16 -63 2 -3 -5 -12 -7 -20 -3 -36 13
-105 -74 -104 -132 0 -11 8 5 19 35 33 97 93 121 98 39 3 -40 0 -48 -22 -63
-49 -31 -67 -86 -74 -225 -8 -144 0 -332 18 -409 6 -29 22 -65 35 -81 17 -19
25 -43 28 -82 l3 -54 2 53 c2 48 4 52 27 52 24 0 25 -2 25 -64 0 -67 -10 -86
-35 -66 -11 9 -15 9 -15 1 0 -6 5 -11 10 -11 6 0 10 -22 10 -50 0 -27 -4 -50
-9 -50 -28 0 -81 75 -107 154 -13 39 -13 39 -8 6 9 -53 55 -132 91 -155 17
-11 34 -27 36 -35 4 -11 5 -11 6 3 1 10 9 17 22 17 11 0 46 24 77 54 31 29 66
58 77 64 11 6 14 12 8 12 -7 0 -42 -27 -79 -60 -82 -74 -104 -78 -104 -16 0
26 6 48 15 56 11 9 15 32 15 81 0 37 5 71 11 74 16 10 30 51 50 149 31 147 82
207 213 253 79 28 282 25 358 -5 112 -45 177 -146 164 -255 -4 -29 -24 -103
-45 -164 l-38 -113 28 -56 c24 -46 29 -70 29 -125 0 -66 1 -68 22 -60 21 7 78
101 78 127 0 6 10 24 21 39 19 23 27 26 55 20 24 -4 48 0 79 14 l46 20 21 -24
c12 -14 31 -25 42 -25 22 0 125 -107 127 -132 3 -21 19 104 18 142 0 19 -5 40
-11 47 -5 7 -8 19 -5 26 5 13 -44 305 -76 460 -11 48 -11 67 -3 67 7 0 7 3 -2
8 -6 5 -19 33 -26 63 -40 153 -105 251 -175 265 -37 8 -36 28 2 32 l26 3 -29
29 c-35 34 -37 40 -12 40 13 0 14 2 3 9 -9 6 -10 11 -2 15 17 11 13 36 -6 37
-10 1 -4 5 12 9 l30 8 -35 0 c-19 -1 -51 -4 -70 -8z m-882 -82 c3 -16 1 -16
-27 -2 -38 19 -39 26 -4 22 17 -2 29 -10 31 -20z m940 -293 c-3 -37 -1 -44 12
-39 32 14 68 16 75 3 10 -16 -29 -49 -58 -49 -19 0 -18 -3 11 -31 56 -55 28
-71 -32 -19 l-34 30 -6 -23 c-6 -25 -41 -67 -56 -67 -18 0 -10 57 10 83 20 25
20 26 1 32 -30 9 -71 45 -71 61 0 21 23 17 64 -11 l36 -24 0 30 c0 38 16 69
36 69 13 0 15 -9 12 -45z m-46 -647 l-9 -33 -8 37 c-8 42 2 70 17 45 5 -10 5
-30 0 -49z m148 3 c0 -13 -41 -41 -60 -41 -10 1 -4 9 15 25 32 26 45 31 45 16z"/>
<path d="M2893 2863 c32 -2 81 -2 110 0 29 2 3 3 -58 3 -60 0 -84 -1 -52 -3z"/>
<path d="M2770 2850 c-11 -7 -5 -8 20 -4 43 8 51 14 19 14 -13 0 -31 -5 -39
-10z"/>
<path d="M2665 2830 c-68 -6 -69 -7 -17 -8 53 -2 53 -2 38 -24 -21 -29 -20
-51 2 -71 47 -43 148 10 127 65 -5 12 -71 52 -78 46 -1 -1 -33 -4 -72 -8z
m125 -28 c29 -24 20 -55 -21 -73 -64 -26 -115 25 -70 70 26 26 62 27 91 3z"/>
<path d="M2533 2813 c9 -2 25 -2 35 0 9 3 1 5 -18 5 -19 0 -27 -2 -17 -5z"/>
<path d="M3497 2802 c-21 -23 -21 -44 -2 -147 19 -105 19 -103 -12 -108 l-28
-4 28 -2 c35 -1 39 -37 5 -44 -20 -4 -19 -4 4 -6 l27 -1 3 -132 c2 -85 7 -131
13 -128 11 5 11 193 0 423 -4 96 -3 137 5 132 5 -3 11 -34 12 -68 l2 -62 3 54
c4 57 -11 111 -32 111 -6 0 -19 -8 -28 -18z"/>
<path d="M2082 2745 c0 -16 2 -22 5 -12 2 9 2 23 0 30 -3 6 -5 -1 -5 -18z"/>
<path d="M2073 2665 c0 -27 2 -38 4 -22 2 15 2 37 0 50 -2 12 -4 0 -4 -28z"/>
<path d="M3562 2474 c-1 -67 1 -136 4 -153 l7 -31 67 0 c62 0 68 -2 74 -22 6
-22 7 -22 20 -5 14 18 14 18 19 0 4 -14 5 -14 6 5 0 12 6 22 11 22 6 0 10 -10
11 -22 1 -21 1 -22 7 -3 7 21 32 33 32 15 0 -5 7 -10 15 -10 25 0 17 27 -10
34 -14 4 -25 14 -26 24 -1 11 -4 8 -9 -8 -8 -25 -8 -25 -9 5 l-2 30 -13 -25
-14 -25 -5 30 c-4 29 -4 29 -6 -5 -1 -19 -6 -42 -11 -50 -8 -12 -10 -11 -8 5
0 11 0 33 0 48 -2 26 -3 27 -18 13 -9 -9 -35 -17 -60 -17 -24 -1 -50 -2 -56
-3 -10 -1 -14 35 -18 134 l-6 135 -2 -121z m148 -164 c0 -6 -25 -9 -57 -9 -56
2 -56 2 -18 9 61 11 75 11 75 0z"/>
<path d="M2064 2450 c0 -74 1 -105 3 -67 2 37 2 97 0 135 -2 37 -3 6 -3 -68z"/>
<path d="M2686 2284 c-11 -29 -6 -69 14 -101 11 -18 24 -33 29 -33 18 0 19 56
1 96 -21 48 -35 61 -44 38z"/>
<path d="M2073 2145 c0 -33 2 -45 4 -27 2 18 2 45 0 60 -2 15 -4 0 -4 -33z"/>
<path d="M2806 2165 c-25 -59 -29 -90 -16 -116 l13 -23 18 23 c20 24 25 98 10
136 -7 18 -10 15 -25 -20z"/>
<path d="M2082 2050 c0 -19 2 -27 5 -17 2 9 2 25 0 35 -3 9 -5 1 -5 -18z"/>
<path d="M2582 2061 c-20 -12 47 -51 89 -51 54 0 65 13 33 39 -28 22 -96 29
-122 12z"/>
<path d="M3720 2006 c0 -9 5 -16 10 -16 6 0 10 4 10 9 0 6 -4 13 -10 16 -5 3
-10 -1 -10 -9z"/>
<path d="M3670 2000 c0 -5 5 -10 10 -10 6 0 10 5 10 10 0 6 -4 10 -10 10 -5 0
-10 -4 -10 -10z"/>
<path d="M3690 1969 c0 -6 6 -9 14 -6 7 3 18 1 24 -5 6 -6 12 -6 16 1 4 6 6
11 4 12 -31 8 -58 7 -58 -2z"/>
<path d="M3655 1960 c4 -6 11 -8 16 -5 14 9 11 15 -7 15 -8 0 -12 -5 -9 -10z"/>
<path d="M3696 1941 c-4 -5 -2 -12 3 -15 5 -4 12 -2 15 3 4 5 2 12 -3 15 -5 4
-12 2 -15 -3z"/>
<path d="M2452 1929 c10 -5 22 -17 27 -27 6 -9 11 -12 11 -5 0 6 -7 19 -16 27
-8 9 -21 16 -27 16 -7 0 -4 -5 5 -11z"/>
<path d="M2686 1774 c-19 -18 -20 -38 -6 -65 13 -24 32 -24 53 -1 23 25 21 59
-2 72 -25 13 -27 13 -45 -6z"/>
<path d="M3250 1731 c-5 -11 -10 -26 -10 -34 0 -18 32 -47 52 -47 21 0 48 32
48 58 0 40 -71 58 -90 23z"/>
<path d="M3417 1593 c-12 -11 -8 -23 8 -23 8 0 15 7 15 15 0 16 -12 20 -23 8z"/>
<path d="M2020 1580 c0 -5 -10 -10 -22 -11 -19 -1 -18 -2 6 -10 17 -4 32 -6
35 -4 2 3 -1 5 -7 5 -6 0 -9 7 -6 15 4 8 3 15 0 15 -3 0 -6 -4 -6 -10z"/>
<path d="M2660 1552 c0 -10 3 -22 7 -25 10 -11 32 13 26 29 -8 20 -33 17 -33
-4z"/>
<path d="M3025 1536 c-5 -10 -4 -26 2 -35 12 -19 45 -21 51 -3 2 8 -3 12 -14
10 -12 -2 -20 5 -24 22 -7 23 -8 23 -15 6z"/>
</g>
</svg>
